<?xml version="1.0" encoding="UTF-8"?>
<!DOCTYPE svg PUBLIC "-//W3C//DTD SVG 1.1//EN" "http://www.w3.org/Graphics/SVG/1.1/DTD/svg11.dtd">
<!-- Creator: CorelDRAW 2021 (64-Bit) -->
<svg xmlns="http://www.w3.org/2000/svg" xml:space="preserve" width="10.578in" height="1.66998in" version="1.1" style="shape-rendering:geometricPrecision; text-rendering:geometricPrecision; image-rendering:optimizeQuality; fill-rule:evenodd; clip-rule:evenodd"
viewBox="0 0 10578.04 1669.98"
 xmlns:xlink="http://www.w3.org/1999/xlink"
 xmlns:xodm="http://www.corel.com/coreldraw/odm/2003">
 <defs>
  <style type="text/css">
   <![CDATA[
    .fil1 {fill:#009A46;fill-rule:nonzero}
    .fil0 {fill:#2A3362;fill-rule:nonzero}
    .fil3 {fill:#F5AFCB;fill-rule:nonzero}
    .fil2 {fill:#FF5805;fill-rule:nonzero}
    .fil4 {fill:#FF9B00;fill-rule:nonzero}
   ]]>
  </style>
 </defs>
 <g id="Layer_x0020_1">
  <metadata id="CorelCorpID_0Corel-Layer"/>
  <g id="_2464828059600">
   <path class="fil1" d="M-0 364.77c0,-108.12 31.62,-200.43 97.96,-266.79l115.39 115.39c-128.44,127.97 -16.24,525.83 349.43,891.9 365.66,366.01 763.77,478.04 892.13,349.85l115.39 115.39c-216.48,216.48 -709.61,62.87 -1122.31,-349.96 -286.32,-286.44 -447.99,-611.4 -447.99,-855.77z"/>
   <path class="fil2" d="M727.7 1669.98c-108.13,0 -200.44,-31.62 -266.91,-97.96l115.39 -115.4c128.19,128.2 526.05,16.05 892.08,-349.9 366.01,-365.91 477.98,-763.77 349.78,-891.96l115.39 -115.39c216.6,216.48 62.86,709.55 -350.03,1122.31 -286.38,286.74 -611.34,448.3 -855.71,448.3z"/>
   <path class="fil3" d="M1621.63 1056.53c-70.07,-201.7 -213.11,-417.22 -402.97,-606.95 -412.77,-412.9 -905.84,-566.59 -1122.32,-349.97 -15.32,15.45 -2.05,53.67 29.81,85.45 31.85,31.86 70.02,45.02 85.4,29.7 128.32,-128.2 526.18,-16.05 892.07,349.96 173.09,173.09 302.13,366.38 364.27,545.24 54.51,156.86 49.16,283.32 -14.3,346.78 -15.44,15.32 -2.04,53.67 29.69,85.39 31.74,31.74 70.02,45.08 85.53,29.63 110.89,-110.89 129.69,-294.13 52.82,-515.24z"/>
   <path class="fil4" d="M1933.2 99.61c-111.11,-111.13 -294.13,-129.95 -515.48,-53.02 -201.57,69.96 -417.22,213.18 -606.95,402.87 -412.78,412.77 -566.44,905.83 -349.97,1122.44 15.45,15.32 53.67,2.11 85.46,-29.64 31.85,-31.72 45.13,-70.06 29.69,-85.51 -128.55,-128.2 -16.05,-526.07 349.98,-892.15 173.09,-173.09 366.36,-302.07 545.23,-364.27 156.85,-54.33 283.31,-49.16 346.9,14.31 15.32,15.32 53.66,2.11 85.41,-29.74 31.73,-31.87 45.07,-69.96 29.74,-85.28z"/>
  </g>
 </g>
</svg>
